<?xml version="1.0" encoding="utf-8"?>
<!-- Generator: Adobe Illustrator 18.1.1, SVG Export Plug-In . SVG Version: 6.00 Build 0)  -->
<!DOCTYPE svg PUBLIC "-//W3C//DTD SVG 1.1//EN" "http://www.w3.org/Graphics/SVG/1.1/DTD/svg11.dtd">
<svg version="1.1" id="_x31_0" xmlns="http://www.w3.org/2000/svg" xmlns:xlink="http://www.w3.org/1999/xlink" x="0px" y="0px"
	 viewBox="0 0 512 512" style="enable-background:new 0 0 512 512;" xml:space="preserve">
<style type="text/css">
	.st0{fill:#374149;}
</style>
<g>
	<path class="st0" d="M508.557,21.797c-2.637-6.718-7.726-11.992-14.278-14.836l-3.179-1.414c-3.442-1.5-7.078-2.266-10.809-2.266
		c-10.734,0-20.45,6.359-24.754,16.195l-65.11,149.121l-25.906,59.176h0.066l-0.07,0.164h62.672l80.977-185.461
		C511.061,35.867,511.198,28.523,508.557,21.797z"/>
	<path class="st0" d="M478.444,268.519v-0.16H279.217H53.147c0,82.758,92.387,149.852,158.477,149.852h29.324
		c19.375,0,35.387,14.398,37.922,33.078c0.683,5.055,1.21,10.133,2.09,15.157L288.921,512h160.786
		c15.87,0,28.738-12.867,28.738-28.738V269.176V268.519L478.444,268.519z"/>
	<path class="st0" d="M17.835,0.11C15.616,0.039,13.385,0,11.147,0c-5.297,0-9.59,4.297-9.59,9.594s4.293,9.586,9.59,9.586
		c2.039,0,4.074,0.038,6.098,0.102c0.102,0.003,0.203,0.003,0.301,0.003c5.157,0,9.418-4.102,9.582-9.293
		C27.288,4.695,23.132,0.274,17.835,0.11z"/>
	<path class="st0" d="M165.342,100.758c1.852,2.726,4.867,4.188,7.93,4.188c1.863,0,3.742-0.539,5.394-1.664
		c4.374-2.985,5.504-8.946,2.519-13.325c-2.422-3.562-4.957-7.035-7.59-10.426c-0.394-0.508-0.934-0.797-1.402-1.203
		c-0.133-0.121-0.266-0.242-0.406-0.351c-3.382-2.614-8.125-2.867-11.648-0.126c-4.18,3.25-4.938,9.278-1.684,13.458
		C160.846,94.383,163.14,97.531,165.342,100.758z"/>
	<path class="st0" d="M190.198,153.383c1.218,4.195,5.046,6.914,9.203,6.914c0.886,0,1.793-0.125,2.687-0.39
		c5.086-1.485,8.004-6.805,6.519-11.89c-1.206-4.141-2.538-8.227-3.992-12.258c-0.683-1.898-2.008-3.305-3.539-4.398
		c-0.042-0.031-0.086-0.062-0.129-0.09c-2.461-1.699-5.586-2.371-8.609-1.278c-4.981,1.805-7.563,7.297-5.766,12.282
		C187.893,145.922,189.101,149.633,190.198,153.383z"/>
	<path class="st0" d="M125.456,58.32c1.746,1.356,3.82,2.016,5.879,2.016c2.859,0,5.687-1.274,7.578-3.707
		c3.25-4.183,2.493-10.207-1.687-13.457c-3.394-2.641-6.871-5.172-10.43-7.594c-1.622-1.102-3.454-1.465-5.274-1.485
		c-0.043,0-0.078-0.019-0.121-0.019c-0.047,0-0.09,0.015-0.137,0.015c-2.223,0.035-4.313,0.809-6.039,2.301
		c-0.098,0.086-0.184,0.184-0.278,0.27c-0.504,0.473-1.074,0.852-1.476,1.442c-2.985,4.379-1.852,10.344,2.523,13.328
		C119.221,53.629,122.374,55.922,125.456,58.32z"/>
	<path class="st0" d="M63.346,26.586c3.754,1.094,7.462,2.298,11.114,3.618c1.078,0.39,2.176,0.578,3.258,0.578
		c3.926,0,7.61-2.43,9.02-6.336c1.801-4.985-0.782-10.477-5.758-12.278c-4.038-1.457-8.133-2.793-12.281-3.996
		c-1.93-0.562-3.828-0.328-5.602,0.258c-0.055,0.016-0.106,0.031-0.156,0.051c-2.836,0.984-5.227,3.121-6.13,6.222
		C55.335,19.789,58.257,25.11,63.346,26.586z"/>
	<path class="st0" d="M197.526,199.578c0.062,2.015,0.094,4.042,0.094,6.082c0,5.301,4.293,9.59,9.59,9.59
		c5.301,0,9.594-4.29,9.594-9.59c0-2.246-0.039-4.477-0.11-6.703c-0.172-5.293-4.793-9.457-9.894-9.274
		C201.507,189.851,197.354,194.282,197.526,199.578z"/>
</g>
</svg>
